<mxfile host="app.diagrams.net" modified="2023-07-11T08:17:49.232Z" agent="Mozilla/5.0 (X11; Linux x86_64) AppleWebKit/537.36 (KHTML, like Gecko) Chrome/112.0.0.0 Safari/537.36" version="21.6.1" etag="totb9VrWhDunSST5JmsV" type="github">
  <diagram name="第 1 页" id="GL0AKmvwCZu_qGWqcP_L">
    <mxGraphModel>
      <root>
        <mxCell id="0" />
        <mxCell id="1" parent="0" />
      </root>
    </mxGraphModel>
  </diagram>
</mxfile>
